<svg viewBox="0 0 965.5333251953125 400" xmlns="http://www.w3.org/2000/svg"><g><g><g><g><g><line x1="82.68100261688232" y1="353.3375276391076" x2="77.68100261688232" y2="353.3375276391076" style="visibility: inherit;" fill="rgb(0, 0, 0)" stroke="rgb(204, 204, 204)" stroke-width="1px"></line><line x1="82.68100261688232" y1="319.21314739176876" x2="77.68100261688232" y2="319.21314739176876" style="visibility: inherit;" fill="rgb(0, 0, 0)" stroke="rgb(204, 204, 204)" stroke-width="1px"></line><line x1="82.68100261688232" y1="285.08876714443005" x2="77.68100261688232" y2="285.08876714443005" style="visibility: inherit;" fill="rgb(0, 0, 0)" stroke="rgb(204, 204, 204)" stroke-width="1px"></line><line x1="82.68100261688232" y1="250.96438689709132" x2="77.68100261688232" y2="250.96438689709132" style="visibility: inherit;" fill="rgb(0, 0, 0)" stroke="rgb(204, 204, 204)" stroke-width="1px"></line><line x1="82.68100261688232" y1="216.84000664975255" x2="77.68100261688232" y2="216.84000664975255" style="visibility: inherit;" fill="rgb(0, 0, 0)" stroke="rgb(204, 204, 204)" stroke-width="1px"></line><line x1="82.68100261688232" y1="182.71562640241385" x2="77.68100261688232" y2="182.71562640241385" style="visibility: inherit;" fill="rgb(0, 0, 0)" stroke="rgb(204, 204, 204)" stroke-width="1px"></line><line x1="82.68100261688232" y1="148.5912461550751" x2="77.68100261688232" y2="148.5912461550751" style="visibility: inherit;" fill="rgb(0, 0, 0)" stroke="rgb(204, 204, 204)" stroke-width="1px"></line><line x1="82.68100261688232" y1="114.46686590773633" x2="77.68100261688232" y2="114.46686590773633" style="visibility: inherit;" fill="rgb(0, 0, 0)" stroke="rgb(204, 204, 204)" stroke-width="1px"></line><line x1="82.68100261688232" y1="80.34248566039761" x2="77.68100261688232" y2="80.34248566039761" style="visibility: inherit;" fill="rgb(0, 0, 0)" stroke="rgb(204, 204, 204)" stroke-width="1px"></line><line x1="82.68100261688232" y1="46.218105413058844" x2="77.68100261688232" y2="46.218105413058844" style="visibility: inherit;" fill="rgb(0, 0, 0)" stroke="rgb(204, 204, 204)" stroke-width="1px"></line><line x1="82.68100261688232" y1="12.09372516572012" x2="77.68100261688232" y2="12.09372516572012" style="visibility: inherit;" fill="rgb(0, 0, 0)" stroke="rgb(204, 204, 204)" stroke-width="1px"></line></g><g transform="translate(72.68100261688232, 0)"><text style="text-anchor: end; visibility: inherit; font-family: Roboto, sans-serif; font-size: 12px; font-weight: 200;" x="0" y="353.3375276391076" dx="0em" dy="0.3em" fill="rgb(33, 33, 33)" stroke="none" stroke-width="1px">-2.8e+4</text><text style="text-anchor: end; visibility: inherit; font-family: Roboto, sans-serif; font-size: 12px; font-weight: 200;" x="0" y="319.21314739176876" dx="0em" dy="0.3em" fill="rgb(33, 33, 33)" stroke="none" stroke-width="1px">-2.7e+4</text><text style="text-anchor: end; visibility: inherit; font-family: Roboto, sans-serif; font-size: 12px; font-weight: 200;" x="0" y="285.08876714443005" dx="0em" dy="0.3em" fill="rgb(33, 33, 33)" stroke="none" stroke-width="1px">-2.6e+4</text><text style="text-anchor: end; visibility: inherit; font-family: Roboto, sans-serif; font-size: 12px; font-weight: 200;" x="0" y="250.96438689709132" dx="0em" dy="0.3em" fill="rgb(33, 33, 33)" stroke="none" stroke-width="1px">-2.5e+4</text><text style="text-anchor: end; visibility: inherit; font-family: Roboto, sans-serif; font-size: 12px; font-weight: 200;" x="0" y="216.84000664975255" dx="0em" dy="0.3em" fill="rgb(33, 33, 33)" stroke="none" stroke-width="1px">-2.4e+4</text><text style="text-anchor: end; visibility: inherit; font-family: Roboto, sans-serif; font-size: 12px; font-weight: 200;" x="0" y="182.71562640241385" dx="0em" dy="0.3em" fill="rgb(33, 33, 33)" stroke="none" stroke-width="1px">-2.3e+4</text><text style="text-anchor: end; visibility: inherit; font-family: Roboto, sans-serif; font-size: 12px; font-weight: 200;" x="0" y="148.5912461550751" dx="0em" dy="0.3em" fill="rgb(33, 33, 33)" stroke="none" stroke-width="1px">-2.2e+4</text><text style="text-anchor: end; visibility: inherit; font-family: Roboto, sans-serif; font-size: 12px; font-weight: 200;" x="0" y="114.46686590773633" dx="0em" dy="0.3em" fill="rgb(33, 33, 33)" stroke="none" stroke-width="1px">-2.1e+4</text><text style="text-anchor: end; visibility: inherit; font-family: Roboto, sans-serif; font-size: 12px; font-weight: 200;" x="0" y="80.34248566039761" dx="0em" dy="0.3em" fill="rgb(33, 33, 33)" stroke="none" stroke-width="1px">-2e+4</text><text style="text-anchor: end; visibility: inherit; font-family: Roboto, sans-serif; font-size: 12px; font-weight: 200;" x="0" y="46.218105413058844" dx="0em" dy="0.3em" fill="rgb(33, 33, 33)" stroke="none" stroke-width="1px">-1.9e+4</text><text style="text-anchor: end; visibility: inherit; font-family: Roboto, sans-serif; font-size: 12px; font-weight: 200;" x="0" y="12.09372516572012" dx="0em" dy="0.3em" fill="rgb(33, 33, 33)" stroke="none" stroke-width="1px">-1.8e+4</text></g><line x1="82.68100261688232" y1="0" x2="82.68100261688232" y2="376.8099994659424" fill="rgb(0, 0, 0)" stroke="rgb(204, 204, 204)" stroke-width="1px"></line></g></g><g transform="translate(82, 0)" clip-path="url(#clip_0)"><clipPath id="clip_0"><rect width="882" height="376"></rect></clipPath><g><g><g><line x1="82.29756278993767" y1="0" x2="82.29756278993767" y2="376.8099994659424" fill="rgb(0, 0, 0)" stroke="rgb(66, 66, 66)" stroke-width="1px" opacity="0.25"></line><line x1="178.24016719063752" y1="0" x2="178.24016719063752" y2="376.8099994659424" fill="rgb(0, 0, 0)" stroke="rgb(66, 66, 66)" stroke-width="1px" opacity="0.25"></line><line x1="274.18277159133737" y1="0" x2="274.18277159133737" y2="376.8099994659424" fill="rgb(0, 0, 0)" stroke="rgb(66, 66, 66)" stroke-width="1px" opacity="0.25"></line><line x1="370.12537599203716" y1="0" x2="370.12537599203716" y2="376.8099994659424" fill="rgb(0, 0, 0)" stroke="rgb(66, 66, 66)" stroke-width="1px" opacity="0.25"></line><line x1="466.067980392737" y1="0" x2="466.067980392737" y2="376.8099994659424" fill="rgb(0, 0, 0)" stroke="rgb(66, 66, 66)" stroke-width="1px" opacity="0.25"></line><line x1="562.0105847934368" y1="0" x2="562.0105847934368" y2="376.8099994659424" fill="rgb(0, 0, 0)" stroke="rgb(66, 66, 66)" stroke-width="1px" opacity="0.25"></line><line x1="657.9531891941366" y1="0" x2="657.9531891941366" y2="376.8099994659424" fill="rgb(0, 0, 0)" stroke="rgb(66, 66, 66)" stroke-width="1px" opacity="0.25"></line><line x1="753.8957935948364" y1="0" x2="753.8957935948364" y2="376.8099994659424" fill="rgb(0, 0, 0)" stroke="rgb(66, 66, 66)" stroke-width="1px" opacity="0.25"></line><line x1="849.8383979955363" y1="0" x2="849.8383979955363" y2="376.8099994659424" fill="rgb(0, 0, 0)" stroke="rgb(66, 66, 66)" stroke-width="1px" opacity="0.25"></line></g><g><line x1="0" y1="353.3375276391076" x2="882.8519973831177" y2="353.3375276391076" fill="rgb(0, 0, 0)" stroke="rgb(66, 66, 66)" stroke-width="1px" opacity="0.25"></line><line x1="0" y1="319.21314739176876" x2="882.8519973831177" y2="319.21314739176876" fill="rgb(0, 0, 0)" stroke="rgb(66, 66, 66)" stroke-width="1px" opacity="0.25"></line><line x1="0" y1="285.08876714443005" x2="882.8519973831177" y2="285.08876714443005" fill="rgb(0, 0, 0)" stroke="rgb(66, 66, 66)" stroke-width="1px" opacity="0.25"></line><line x1="0" y1="250.96438689709132" x2="882.8519973831177" y2="250.96438689709132" fill="rgb(0, 0, 0)" stroke="rgb(66, 66, 66)" stroke-width="1px" opacity="0.25"></line><line x1="0" y1="216.84000664975255" x2="882.8519973831177" y2="216.84000664975255" fill="rgb(0, 0, 0)" stroke="rgb(66, 66, 66)" stroke-width="1px" opacity="0.25"></line><line x1="0" y1="182.71562640241385" x2="882.8519973831177" y2="182.71562640241385" fill="rgb(0, 0, 0)" stroke="rgb(66, 66, 66)" stroke-width="1px" opacity="0.25"></line><line x1="0" y1="148.5912461550751" x2="882.8519973831177" y2="148.5912461550751" fill="rgb(0, 0, 0)" stroke="rgb(66, 66, 66)" stroke-width="1px" opacity="0.25"></line><line x1="0" y1="114.46686590773633" x2="882.8519973831177" y2="114.46686590773633" fill="rgb(0, 0, 0)" stroke="rgb(66, 66, 66)" stroke-width="1px" opacity="0.25"></line><line x1="0" y1="80.34248566039761" x2="882.8519973831177" y2="80.34248566039761" fill="rgb(0, 0, 0)" stroke="rgb(66, 66, 66)" stroke-width="1px" opacity="0.25"></line><line x1="0" y1="46.218105413058844" x2="882.8519973831177" y2="46.218105413058844" fill="rgb(0, 0, 0)" stroke="rgb(66, 66, 66)" stroke-width="1px" opacity="0.25"></line><line x1="0" y1="12.09372516572012" x2="882.8519973831177" y2="12.09372516572012" fill="rgb(0, 0, 0)" stroke="rgb(66, 66, 66)" stroke-width="1px" opacity="0.25"></line></g></g></g><g><g><line x1="0" y1="-602.1451192863773" x2="882.8519973831177" y2="-602.1451192863773" fill="rgb(0, 0, 0)" stroke="rgb(153, 153, 153)" stroke-width="1.5px"></line></g></g><g><g><line x1="82.29756278993767" y1="0" x2="82.29756278993767" y2="376.8099994659424" fill="rgb(0, 0, 0)" stroke="rgb(153, 153, 153)" stroke-width="1.5px"></line></g></g><g><g><g><g><g><path style="fill: none;" stroke="rgb(204, 51, 17)" stroke-width="2px" d="M83.67913629330775,-61.8298131254015L85.06070979667783,194.664038782452L86.4422833000479,296.84702272513584L87.82385680341798,234.79128961965296L89.20543030678806,287.66629046935924L90.58700381015814,200.80124526058037L91.96857731352821,243.1661851146553L93.35015081689829,193.26693455008154L94.73172432026837,176.94419339480686L96.11329782363845,156.19953057595438L97.49487132700852,157.72970325812577L98.8764448303786,166.1404147257849L100.25801833374868,175.15316553813878L101.63959183711876,177.44295327071228L103.02116534048884,163.04924873179675L104.40273884385891,158.39025313064423L105.78431234722899,179.11449094358656L107.16588585059907,176.60315654167968L108.54745935396915,184.0373894180866L109.92903285733922,208.97457086318906L111.3106063607093,197.72425332547945L112.69217986407938,196.0699752164255L114.07375336744944,189.7895557943993L115.45532687081953,193.26020249576985L116.83690037418963,188.81910933251703L118.21847387755969,190.09513480029833L119.60004738092977,212.57303724212844L120.98162088429986,206.33427893626535L122.36319438766992,199.17453900683316L123.74476789104001,199.2935727397426L125.12634139441008,183.91863552256783L126.50791489778018,177.67303269143557L127.88948840115025,190.6688158377421L129.27106190452034,180.0456100066233L130.6526354078904,177.13599836391447L132.0342089112605,165.1806799061326L133.41578241463057,171.78524925568982L134.79735591800062,173.34162812665002L136.17892942137073,174.32142406076426L137.56050292474077,177.6071903485421L138.94207642811088,178.87969709811537L140.32364993148096,177.7520063769107L141.705223434851,178.66116148798335L143.0867969382211,187.17528739322245L144.46837044159116,190.7607242214499L145.84994394496124,189.81365260262223L147.23151744833135,192.59046345807124L148.6130909517014,190.24190778788537L149.9946644550715,191.93688790683674L151.37623795844158,191.44357215744014L152.75781146181163,193.2788979995984L154.13938496518173,195.26736604987872L155.52095846855178,194.05601701340026L156.9025319719219,191.86885055680617L158.28410547529197,191.5627967945628L159.66567897866202,194.20807516829007L161.04725248203212,190.39198974429024L162.42882598540217,191.58368628210087L163.81039948877228,190.2811911833271L165.19197299214235,191.8816866993731L166.5735464955124,189.16109471454303L167.9551199988825,187.86676336355805L169.3366935022526,188.2220565650767L170.71826700562264,189.33242844061473L172.09984050899274,185.61943043138803L173.4814140123628,186.1642808229486L174.8629875157329,190.16053500464207L176.24456101910297,192.66529142136758L177.62613452247302,187.86125372056694L179.00770802584313,187.04231130551153L180.38928152921318,189.98017545049737L181.77085503258328,190.8762328085611L183.15242853595336,189.2939141937573L184.5340020393234,183.95901256345653L185.91557554269352,188.47338627430855L187.29714904606357,190.13144705950037L188.67872254943367,190.30009069033227L190.06029605280375,191.68001247119443L191.4418695561738,192.17489156524385L192.8234430595439,189.47854591567034L194.20501656291398,187.89735485176507L195.58659006628403,188.88317486801964L196.96816356965414,189.92954647982378L198.3497370730242,191.49600665901482L199.7313105763943,186.27420956415634L201.11288407976437,188.5494722240984L202.49445758313442,184.54793595639023L203.87603108650453,183.442242744179L205.25760458987457,180.04723052402534L206.63917809324468,180.12280197580498L208.02075159661476,181.30184168819972L209.4023250999848,182.80802211787338L210.7838986033549,178.93480206389248L212.16547210672496,179.6068225358277L213.54704561009504,181.12015494044604L214.92861911346515,185.50732265491712L216.3101926168352,183.29133675524682L217.6917661202053,183.7070327087106L219.07333962357538,182.1807603722665L220.45491312694543,180.4805967850445L221.83648663031553,180.54849943957615L223.2180601336856,183.63751043146578L224.59963363705566,184.36285823773963L225.98120714042574,185.4669634811738L227.36278064379582,181.89080821425065L228.74435414716592,184.27345441527544L230.125927650536,183.2658787168589L231.50750115390608,183.533047712074L232.88907465727613,181.29160264719752L234.2706481606462,183.81230299883617L235.6522216640163,185.18464895387265L237.0337951673864,183.00570925176893L238.41536867075646,180.96741245969693L239.7969421741265,184.17132739467468L241.1785156774966,186.73923520287553L242.5600891808667,189.2707299315436L243.94166268423677,191.19802841247784L245.32323618760685,189.1413505381914L246.7048096909769,186.27211198546496L248.08638319434698,190.71345906090258L249.46795669771709,190.37951839370882L250.84953020108716,190.5027955887172L252.23110370445724,192.4416408316118L253.6126772078273,189.59888603911563L254.99425071119737,189.2272428590941L256.37582421456744,191.04916446809233L257.7573977179375,190.21700472223645L259.13897122130766,188.58250154297772L260.5205447246777,191.7370780004735L261.90211822804775,191.018682710713L263.28369173141783,187.59425232779245L264.6652652347879,190.89995908905482L266.04683873815804,191.401886408978L267.42841224152806,192.35192715222692L268.80998574489814,193.2543438482954L270.1915592482682,193.27915469975548L271.5731327516383,194.40288372477949L272.95470625500843,193.96852116106925L274.3362797583785,191.02078364800582L275.71785326174853,191.83325477420968L277.0994267651186,191.81160168164644L278.4810002684887,189.69688909053355L279.8625737718588,189.25577909437206L281.2441472752289,188.99608922538124L282.6257207785989,187.38114785486928L284.007294281969,187.25294908498933L285.3888677853391,187.40995960598462L286.7704412887092,184.8972225704903L288.1520147920793,183.42280813098583L289.5335882954493,181.20385020875798L290.9151617988194,182.20289283072827L292.29673530218946,184.42003883370475L293.67830880555954,183.10625952712405L295.0598823089297,183.57122698986063L296.4414558122997,183.6290109020753L297.82302931566977,184.28320520857164L299.20460281903985,185.59530893027758L300.5861763224099,188.69313276735716L301.96774982578006,191.3683066889602L303.3493233291501,191.84797077053074L304.73089683252016,189.32367265721246L306.11247033589024,187.0265005650401L307.4940438392603,186.12222607503324L308.87561734263045,186.70206791609561L310.25719084600047,187.6767243334726L311.63876434937055,189.16187832039583L313.0203378527406,188.61595703164477L314.4019113561107,188.4138889640935L315.78348485948084,188.47392908800012L317.16505836285086,188.63387567577846L318.54663186622093,187.47257114303778L319.928205369591,186.3871168201271L321.3097788729611,186.23224994623982L322.6913523763312,188.02105602463405L324.0729258797013,185.97481707409636L325.4544993830713,184.11413417536787L326.8360728864414,184.67529973408344L328.2176463898115,185.71403384265744L329.5992198931816,185.19947843501532L330.9807933965517,185.03786209666606L332.3623668999217,182.38932972569305L333.7439404032918,184.71134709055084L335.12551390666187,186.6231707676218L336.50708741003194,185.00895128504672L337.8886609134021,186.09818709382557L339.2702344167721,185.17857634397075L340.6518079201422,185.08501925466587L342.03338142351225,182.62049857345332L343.41495492688233,184.15957180689998L344.79652843025247,184.9782404780262L346.1781019336225,186.2705876357836L347.55967543699256,187.07764579156023L348.94124894036264,186.19549769098037L350.3228224437327,186.77366763239755L351.70439594710285,185.8022442845563L353.0859694504729,187.11976003830148L354.46754295384295,186.9639831338895L355.84911645721303,185.18316577251716L357.2306899605831,187.62428414593475L358.61226346395324,185.48015391585542L359.99383696732326,185.97050870792356L361.37541047069334,183.99308344757682L362.7569839740634,182.98242434819787L364.1385574774335,181.39477618424732L365.52013098080363,180.30812987332203L366.9017044841737,180.69114502495185L368.2832779875437,181.0363866461195L369.6648514909138,180.67569446284887L371.0464249942839,180.5713419563838L372.427998497654,180.2933703952268L373.8095720010241,179.8117867680464L375.1911455043941,181.7321114504309L376.5727190077642,180.7691943092778L377.95429251113427,180.75075205273947L379.3358660145044,181.5567524135428L380.7174395178745,182.93373410672365L382.0990130212445,183.14146349911655L383.4805865246146,184.21682342259044L384.86216002798466,182.9156321896705L386.24373353135474,182.9852161378057L387.62530703472487,182.5338356457906L389.0068805380949,183.1394687649514L390.38845404146497,180.80427040139259L391.77002754483505,178.62903177310145L393.1516010482051,177.5937891706437L394.53317455157526,179.1265050971095L395.9147480549453,177.35731253383196L397.29632155831536,179.62131328489863L398.67789506168543,177.99596595879476L400.0594685650555,176.15739419956358L401.44104206842565,175.75019472425225L402.82261557179567,176.3764335984915L404.20418907516574,175.61393471738685L405.5857625785358,175.971153911823L406.9673360819059,175.51212297983915L408.34890958527603,173.89301201537813L409.73048308864605,174.58958664672033L411.11205659201613,173.59429471689012L412.4936300953862,173.584893625454L413.8752035987563,175.02901553373945L415.2567771021264,175.57732557064776L416.6383506054965,174.93760432988972L418.0199241088665,175.79323278543166L419.4014976122366,174.83884970674214L420.7830711156067,177.11794040092104L422.1646446189768,175.58558557041252L423.5462181223469,176.42364210073762L424.9277916257169,175.4631254908141L426.309365129087,174.1216605443299L427.69093863245706,174.5769835773151L429.0725121358272,173.83588110832966L430.4540856391973,174.75294910963459L431.8356591425673,173.23797226598168L433.2172326459374,173.66787980577584L434.59880614930745,172.9809972750461L435.9803796526775,173.15921283066632L437.36195315604766,175.37597258931487L438.7435266594177,175.3481763849772L440.12510016278776,174.4112513032691L441.5066736661579,172.68549246764604L442.8882471695279,171.6535227022973L444.269820672898,171.54134340194662L445.65139417626807,170.3702953541038L447.03296767963815,171.0480462729549L448.4145411830082,169.96198661384017L449.7961146863783,169.59235655475922L451.17768818974844,169.8467972475682L452.5592616931185,170.80543609354862L453.9408351964886,169.94708875726676L455.32240869985867,170.4256624452412L456.7039822032287,170.55420923606258L458.08555570659877,170.55256968140426L459.46712920996885,170.44975451995447L460.8487027133389,171.05026509421583L462.230276216709,172.63220396755898L463.6118497200791,171.6258120988702L464.9934232234492,171.78445794632628L466.3749967268193,171.6880318043581L467.75657023018937,171.331837078432L469.13814373355945,171.83282019183733L470.5197172369294,170.04278499087022L471.90129074029954,171.48878433544158L473.2828642436696,172.21246850372572L474.6644377470397,173.75000842442836L476.0460112504098,173.27805560896113L477.42758475377985,173.35099857913315L478.80915825715,174.16430914469592L480.19073176052007,172.38173179877654L481.57230526389014,172.1858691021952L482.9538787672602,172.61851590734187L484.3354522706303,172.9684265719717L485.7170257740003,173.6769450400534L487.0985992773704,172.5421118957194L488.4801727807405,173.50259572365636L489.86174628411055,171.95190117655324L491.24331978748063,171.12700885000746L492.6248932908507,171.1403113568765L494.00646679422084,172.2095841173766L495.3880402975909,171.36953780688904L496.769613800961,171.00433382944263L498.1511873043311,169.26799868558072L499.5327608077011,169.71549690034914L500.9143343110712,169.89195564791825L502.29590781444125,169.80582617152288L503.6774813178113,170.16182276059718L505.05905482118135,169.5571199283021L506.4406283245514,169.97398538496003L507.8222018279215,170.49796180444028L509.2037753312916,171.4412895444521L510.58534883466166,171.9901603806276L511.96692233803174,174.07845770273107L513.3484958414018,172.55933916930692L514.7300693447719,171.63623214035417L516.111642848142,170.973511373659L517.4932163515122,170.43856150719296L518.8747898548822,170.45296344330254L520.2563633582522,170.03806918048926L521.6379368616223,170.1342371085852L523.0195103649924,169.62551458783477L524.4010838683624,169.09295874725075L525.7826573717325,169.40127340549134L527.1642308751026,168.04070189716603L528.5458043784727,168.5108386828568L529.9273778818427,167.18743696911315L531.3089513852128,167.82666014573732L532.690524888583,167.54464266139232L534.072098391953,167.5574700903574L535.453671895323,167.6898380291088L536.8352453986931,168.28162693173363L538.2168189020632,167.24953800264566L539.5983924054333,167.127955215833L540.9799659088034,168.30117954689848L542.3615394121734,168.41889369235506L543.7431129155435,168.99250666067883L545.1246864189136,168.39262496155158L546.5062599222838,167.96048149925116L547.8878334256538,169.4617777247698L549.2694069290238,170.70863134184285L550.6509804323939,171.06628743196205L552.032553935764,170.52914264623593L553.4141274391341,169.5327068669759L554.7957009425041,168.95079762826452L556.1772744458742,169.52546024311286L557.5588479492443,170.15947916446214L558.9404214526144,169.34276075638812L560.3219949559846,169.27987933517832L561.7035684593546,169.38829839971024L563.0851419627246,169.2540653230532L564.4667154660947,169.59254904726L565.8482889694648,169.62231443580447L567.2298624728348,168.47189170298623L568.6114359762049,169.0903856073688L569.993009479575,167.87173379417715L571.3745829829451,168.36525588281793L572.7561564863151,169.46628363530806L574.1377299896852,170.31413996992976L575.5193034930554,171.01518060666643L576.9008769964254,170.19063673358923L578.2824504997955,171.20961614552365L579.6640240031655,170.041519938753L581.0455975065356,170.07436041015652L582.4271710099057,170.6640910889636L583.8087445132758,171.4867291428854L585.1903180166458,172.96730932209329L586.5718915200159,171.82149178441892L587.953465023386,172.17404681202314L589.3350385267562,171.8343471697095L590.7166120301262,172.35824164641627L592.0981855334962,172.5033103074764L593.4797590368663,172.33381771022496L594.8613325402364,171.90553580444782L596.2429060436065,170.79282327703638L597.6244795469765,170.54033090251343L599.0060530503466,170.74365965113506L600.3876265537167,171.94089799997235L601.7692000570868,171.61339734957707L603.150773560457,171.03583009381515L604.532347063827,171.4193054734904L605.913920567197,170.87657639945746L607.2954940705671,169.8051686098964L608.6770675739372,169.12468962067757L610.0586410773072,169.46591420366818L611.4402145806773,169.13796550539973L612.8217880840474,169.4697589580781L614.2033615874175,168.72935123190564L615.5849350907876,168.93795214760732L616.9665085941577,170.00129767509085L618.3480820975278,169.02851234615906L619.7296556008978,168.08917000452288L621.1112291042679,167.4263078138801L622.4928026076379,167.81740465232846L623.874376111008,167.390978237871L625.2559496143781,167.38952514205153L626.6375231177482,168.3381218962908L628.0190966211183,168.30298408474147L629.4006701244883,168.72935931962982L630.7822436278584,169.03256374000023L632.1638171312286,169.38731477961264L633.5453906345986,169.61329935096907L634.9269641379686,168.62525403398007L636.3085376413387,168.09220262510277L637.6901111447088,168.43526453629127L639.0716846480789,168.76224596606124L640.453258151449,168.26371590102693L641.834831654819,168.52234777255052L643.2164051581891,168.94986624021004L644.5979786615592,168.90431698749327L645.9795521649294,168.01157539019064L647.3611256682993,167.97933491676176L648.7426991716694,167.75583020852181L650.1242726750395,168.0142989882855L651.5058461784096,168.54043214410547L652.8874196817796,169.85314324706118L654.2689931851497,169.93332266597147L655.6505666885198,170.1448404417916L657.0321401918899,169.689570691773L658.41371369526,170.69668431859012L659.7952871986301,170.79203545902004L661.1768607020002,170.6761846856054L662.5584342053702,170.41867256317173L663.9400077087403,170.9329145654983L665.3215812121103,171.11702710044756L666.7031547154804,170.3960784931326L668.0847282188505,170.4875481223858L669.4663017222206,171.40241429290035L670.8478752255907,172.4153837638211L672.2294487289607,172.91778754480714L673.6110222323308,173.62131853061425L674.992595735701,172.66614826458652L676.374169239071,172.91748991242002L677.755742742441,173.0322868880914L679.1373162458111,173.32133540947683L680.5188897491812,173.62412498491855L681.9004632525513,173.52383349871943L683.2820367559214,173.8748194220534L684.6636102592914,173.78636433477325L686.0451837626615,174.2937830692125L687.4267572660316,174.71634896776894L688.8083307694018,175.20992352883366L690.1899042727717,174.1659911712243L691.5714777761418,174.49001395915957L692.9530512795119,174.90228408196842L694.334624782882,174.66493888124447L695.716198286252,174.80648054034137L697.0977717896221,174.82234555641372L698.4793452929922,174.11631916044306L699.8609187963623,174.63471862415102L701.2424922997324,174.47504727870768L702.6240658031026,173.87730676353289L704.0056393064726,173.38983248505573L705.3872128098426,172.97391913213661L706.7687863132127,173.29367951830417L708.1503598165827,173.36014404492082L709.5319333199528,173.09234365939946L710.9135068233229,172.4842135779684L712.295080326693,172.7171183455309L713.6766538300631,173.38633662702279L715.0582273334331,173.6585864617029L716.4398008368032,175.67370839376719L717.8213743401734,175.12361937543423L719.2029478435434,175.33202109772085L720.5845213469134,176.35116706092418L721.9660948502835,175.3404487805222L723.3476683536536,174.94816740722985L724.7292418570237,174.48201471097198L726.1108153603938,174.76111883832817L727.4923888637638,174.94807778089452L728.8739623671339,175.41575345848347L730.255535870504,175.15795267065036L731.6371093738742,174.66335560323859L733.0186828772441,176.3362880203151L734.4002563806142,176.76021891073745L735.7818298839843,176.98960501109235L737.1634033873544,176.62522100963375L738.5449768907245,177.34739015318772L739.9265503940945,177.0582903652047L741.3081238974646,176.1163229423213L742.6896974008347,175.59472227535161L744.0712709042048,174.67353494530494L745.452844407575,174.5513132453846L746.834417910945,173.95520563417355L748.215991414315,174.39964512900337L749.5975649176851,175.2880506805338L750.9791384210552,175.50325660044464L752.3607119244252,175.4914936690418L753.7422854277953,174.68760630576224L755.1238589311654,175.71052103197545L756.5054324345355,175.76402042487598L757.8870059379055,176.68893242024194L759.2685794412757,176.61604558791706L760.6501529446458,177.11529553854058L762.0317264480158,177.0930365769091L763.4132999513859,177.51021205334848L764.7948734547559,177.66963064200084L766.176446958126,178.17204520379124L767.5580204614961,178.41035423263176L768.9395939648662,178.42845931653267L770.3211674682362,179.12585256207825L771.7027409716063,178.40993146625772L773.0843144749764,178.6401540310162L774.4658879783466,178.7196363752489L775.8474614817166,178.26882915075294L777.2290349850866,177.48170252667722L778.6106084884567,177.13916245130875L779.9921819918268,177.48012846704387L781.3737554951969,177.39058676618873L782.7553289985669,177.42507011582705L784.136902501937,177.82203653689498L785.5184760053071,178.34805370157468L786.9000495086772,178.99942894021373L788.2816230120474,180.5606707628881L789.6631965154174,180.5461555068023L791.0447700187874,180.58087534329397L792.4263435221575,180.88062464449254L793.8079170255276,182.09827167093857L795.1894905288976,181.57946406156552L796.5710640322677,182.0764948135493L797.9526375356378,181.93650715165057L799.3342110390079,181.75769051012335L800.715784542378,181.6164386315901L802.0973580457481,181.9632204489494L803.4789315491182,181.4133638269964L804.8605050524882,181.67667309770152L806.2420785558583,180.94131509392406L807.6236520592283,181.0518975425465L809.0052255625984,181.14509115989614L810.3867990659685,181.43962748753486L811.7683725693386,182.11635506291412L813.1499460727086,182.37870679637263L814.5315195760787,182.47247826255952L815.9130930794488,181.8070140968378L817.294666582819,181.43058568540295L818.676240086189,181.36977045478056L820.057813589559,182.19941220180104L821.4393870929291,183.20330259479437L822.8209605962992,183.78639660228572L824.2025340996693,183.54528576649216L825.5841076030393,182.77589920439223L826.9656811064094,182.93720313244947L828.3472546097795,183.42621397502006L829.7288281131496,184.4336085001461L831.1104016165198,184.12970382865026L832.4919751198897,183.64732037341443L833.8735486232598,183.25026286891747L835.2551221266299,183.90379755703114L836.63669563,183.87547886878608L838.01826913337,183.93558079192877L839.3998426367401,184.44355086928377L840.7814161401102,184.5612454343158L842.1629896434803,185.08075402992702L843.5445631468504,185.20368262470723L844.9261366502205,185.37657334533986L846.3077101535906,185.59458038342285L847.6892836569606,186.23992332177724L849.0708571603307,186.17046884814133L850.4524306637007,186.08767522325132L851.8340041670708,186.55000999423083L853.2155776704409,186.67537210357656L854.597151173811,186.87583761845406L855.978724677181,187.54390834254752L857.3602981805511,187.25858157070277" fill="none"></path></g></g></g></g><g opacity="0.2"><g><g><g><path style="fill: none;" stroke="rgb(204, 51, 17)" stroke-width="2px" d="M86.4422833000479,500.9065438416792L87.82385680341798,48.99617654092911L89.20543030678806,498.63807234539314L93.35015081689829,-154.63343125393527L94.73172432026837,46.948513778548296L96.11329782363845,-29.57140997529861L97.49487132700852,172.9475225566131L98.8764448303786,258.1049801130271L100.25801833374868,282.60575193717494L101.63959183711876,207.00265430575465L103.02116534048884,-36.957805367703536L104.40273884385891,89.06179800703404L105.78431234722899,507.8978428940328L107.16588585059907,134.29266428717895L108.54745935396915,316.5895024143538L109.92903285733922,678.0712617973587L111.3106063607093,-24.934426563290593L112.69217986407938,161.70973763887088L114.07375336744944,53.19820740314392L115.45532687081953,272.13416599467376L116.83690037418963,83.5550427937999L118.21847387755969,221.5843618910154L119.60004738092977,789.1741121581179L120.98162088429986,40.22574427310189L122.36319438766992,1.5826829085579348L123.74476789104001,202.6942513519876L125.12634139441008,-270.24876435814383L129.27106190452034,-164.62364349265445L130.6526354078904,79.92152943844019L132.0342089112605,-245.80827671746027L133.41578241463057,405.2019868216306L134.79735591800062,229.8465275108618L136.17892942137073,210.83651509670707L137.56050292474077,303.221343101639L138.94207642811088,228.74994854951515L140.32364993148096,132.4748078980263L141.705223434851,216.0358176418143L143.0867969382211,545.339952681083L144.46837044159116,345.0207096915213L145.84994394496124,148.161425592155L147.23151744833135,317.3665652059626L148.6130909517014,82.46879445537974L149.9946644550715,271.3335093932845L151.37623795844158,167.86585581450694L152.75781146181163,282.74291594996606L154.13938496518173,294.08593992319766L155.52095846855178,132.7070802909208L156.9025319719219,79.02529791268638L158.28410547529197,175.48245747522108L159.66567897866202,335.697022579098L161.04725248203212,-17.328488771403745L162.42882598540217,257.5767853601752L163.81039948877228,116.92328809210338L165.19197299214235,283.5320422431857L166.5735464955124,30.807748570737253L167.9551199988825,111.31189366600144L169.3366935022526,209.57024732264617L170.71826700562264,257.09291231213683L172.09984050899274,-44.44910656969692L173.4814140123628,220.43539667405472L174.8629875157329,445.2660087074114L176.24456101910297,354.9016505993508L177.62613452247302,-127.79064056318322L179.00770802584313,132.46894277017128L180.38928152921318,388.4951701266308L181.77085503258328,252.25851402846354L183.15242853595336,79.42859210189857L184.5340020393234,-191.4190132917152L185.91557554269352,510.3090769342442L187.29714904606357,309.87499740724854L188.67872254943367,202.63566672261763L190.06029605280375,293.8931238449641L191.4418695561738,229.28914041709515L192.8234430595439,-15.229639438651907L194.20501656291398,66.39281225069449L195.58659006628403,265.54629442989255L196.96816356965414,272.2654648796098L198.3497370730242,316.19780518249127L199.7313105763943,-234.22028368251176L201.11288407976437,373.8588102136302L202.49445758313442,-145.02981758479555L203.87603108650453,91.36072817865794L205.25760458987457,-105.79637778230058L206.63917809324468,186.5546858294196L208.02075159661476,282.7273866909863L209.4023250999848,313.75058058498774L210.7838986033549,-161.32330938896752L212.16547210672496,239.25539227554304L213.54704561009504,316.82110831544657L214.92861911346515,582.8952994252431L216.3101926168352,-19.444866838540513L217.6917661202053,222.11548920779475L219.07333962357538,39.77626220203144L220.45491312694543,20.31183567747376L221.83648663031553,187.006900516877L223.2180601336856,480.23363438226835L224.59963363705566,254.6632164490182L225.98120714042574,293.4723009213671L227.36278064379582,-171.15716265100653L228.74435414716592,421.6399407238223L230.125927650536,81.98192219423362L231.50750115390608,210.6295693922774L232.88907465727613,-48.04966190546225L234.2706481606462,443.9868109923974L235.6522216640163,328.06089270859394L237.0337951673864,-45.79568660586341L248.08638319434698,688.7341975361296L249.46795669771709,152.63765118159154L250.84953020108716,204.54476583942386L252.23110370445724,415.00314866079594L253.6126772078273,-139.23667084436846L254.99425071119737,145.90914984665048L256.37582421456744,405.01696869747707L257.7573977179375,91.75395834166439L259.13897122130766,-6.2551273811424L260.5205447246777,570.5473391133995L261.90211822804775,104.12038047641529L263.28369173141783,-229.63738608021214L264.6652652347879,596.5659793667521L266.04683873815804,253.43667158633895L267.42841224152806,310.6021399629096L268.80998574489814,306.36605136962766L270.1915592482682,196.4106999438653L271.5731327516383,337.2170904312485L272.95470625500843,138.38685677587773L274.3362797583785,-188.74358190130764L275.71785326174853,297.21291950926087L277.0994267651186,188.98431504335804L278.4810002684887,-88.261744944992L279.8625737718588,130.89342280011888L281.2441472752289,154.41198565609284L282.6257207785989,-29.086337242017066L284.007294281969,169.95824017678228L285.3888677853391,208.72720184266845L286.7704412887092,-158.42493649088937L289.5335882954493,-125.80366187934769L290.9151617988194,321.2868699835963L292.29673530218946,494.9912958031795L293.67830880555954,-2.0524966763060535L295.0598823089297,249.50083754972547L296.4414558122997,191.87195742342874L297.82302931566977,278.1650503607693L299.20460281903985,375.0146402961484L300.5861763224099,638.5520303102923L301.96774982578006,582.134965577857L303.3493233291501,262.32234028668114L304.73089683252016,-183.7082696640101L306.11247033589024,-154.39695996269003L307.4940438392603,50.95299647073746L308.87561734263045,273.86831101353215L310.25719084600047,335.0216664364295L311.63876434937055,414.94109827405714L313.0203378527406,105.16037428379708L314.4019113561107,157.35254748521896L315.78348485948084,197.7538808718431L317.16505836285086,213.4906853986402L318.54663186622093,6.0181191997300605L319.928205369591,15.869534520744029L321.3097788729611,161.7733209567536L322.6913523763312,472.0409838573399L325.4544993830713,-114.44334244386178L326.8360728864414,275.1881647284502L328.2176463898115,354.12618738806606L329.5992198931816,101.34290919116657L330.9807933965517,158.56429622990038L332.3623668999217,-253.6655818923605L336.50708741003194,-84.79295503842393L337.8886609134021,369.060002592168L339.2702344167721,29.944908284248875L340.6518079201422,169.2145686244389L342.03338142351225,-237.48965924200948L343.41495492688233,447.79014645883177L344.79652843025247,325.88706304815014L346.1781019336225,409.7773197419809L347.55967543699256,327.322086546403L348.94124894036264,32.174523308495374L350.3228224437327,288.1974182059464L351.70439594710285,14.593136071297188L353.0859694504729,420.41013005131475L354.46754295384295,159.25278226106246L355.84911645721303,-133.06922230810335L358.61226346395324,-201.21624282925046L359.99383696732326,274.8079978047572L361.37541047069334,-175.87389180708857L365.52013098080363,-20.10882597139986L366.9017044841737,251.64500832499328L368.2832779875437,245.2736132974062L369.6648514909138,113.2704464744942L371.0464249942839,160.98546099795715L372.427998497654,127.89547602686585L373.8095720010241,88.64250801458088L375.1911455043941,546.8263626972474L376.5727190077642,-3.080560280437331L377.95429251113427,177.21466966785454L379.3358660145044,336.74834674710877L380.7174395178745,449.1755829670377L382.0990130212445,223.4736662013109L383.4805865246146,393.87142624509096L384.86216002798466,-71.81376034118463L386.24373353135474,196.6633003367118L387.62530703472487,93.44398160324991L389.0068805380949,303.1599592067019L390.38845404146497,-283.8404650211508L400.0594685650555,-199.93684516669586L401.44104206842565,92.13085945552906L402.82261557179567,305.473019004522L404.20418907516574,17.823355237444677L405.5857625785358,250.17659358747503L406.9673360819059,79.79402955677389L408.34890958527603,-165.00727617371632L409.73048308864605,320.9414939319524L411.11205659201613,-36.30397691023006L412.4936300953862,171.5948774450511L413.8752035987563,481.8566752177825L415.2567771021264,292.50615440561427L416.6383506054965,38.01239164881698L418.0199241088665,359.60261722432256L419.4014976122366,-30.933785867165465L422.1646446189768,-157.20205733311948L423.5462181223469,359.0829535665325L424.9277916257169,-34.63728086170431L426.309365129087,-120.35289197745689L427.69093863245706,274.88311143080944L429.0725121358272,9.9964087641122L430.4540856391973,378.20746927222024L431.8356591425673,-164.04192944812564L433.2172326459374,269.71213478727475L434.59880614930745,18.994048087140982L435.9803796526775,213.2500818582244L437.36195315604766,675.7678661306634L438.7435266594177,169.05221122154336L440.12510016278776,-38.53025947546811L442.8882471695279,-64.4814507584882L444.269820672898,145.78611546005556L445.65139417626807,-99.39145821708772L447.03296767963815,327.69518865699797L448.4145411830082,-81.89064983871567L449.7961146863783,83.59316612485748L451.17768818974844,229.2406864631112L452.5592616931185,395.3136478548022L453.9408351964886,-31.729843675122908L455.32240869985867,283.23678637503L456.7039822032287,200.95384131019316L458.08555570659877,170.16358630088783L459.46712920996885,145.97859829238823L460.8487027133389,314.4354675604207L462.230276216709,551.557787997557L463.6118497200791,-70.20194989252938L464.9934232234492,210.026127715013L466.3749967268193,148.37137050969235L467.75657023018937,84.93121506596209L469.13814373355945,293.73309916337456L470.5197172369294,-266.8650854546536L471.90129074029954,525.5167536196672L473.2828642436696,349.93981908319137L474.6644377470397,552.5080720084293L476.0460112504098,56.66183199824877L477.42758475377985,191.42954016545644L478.80915825715,376.35008991922643L480.19073176052007,-272.0975792914858L481.57230526389014,123.20137426745167L482.9538787672602,281.14580164553837L484.3354522706303,261.0035529586458L485.7170257740003,352.4648899231341L487.0985992773704,-114.66964973513107L491.24331978748063,-39.486741860096124L492.6248932908507,174.54663633644594L494.00646679422084,446.80880393000007L495.3880402975909,-44.985665794660214L496.769613800961,76.67471462643023L498.1511873043311,-280.5012744454244L499.5327608077011,285.96373758170944L500.9143343110712,215.86172998320873L502.29590781444125,147.30438378434147L503.6774813178113,263.42904992341363L505.05905482118135,10.685894532976903L506.4406283245514,279.8023541208399L507.8222018279215,308.9314449635736L509.2037753312916,421.359680921205L510.58534883466166,317.80691633934964L511.96692233803174,730.4011322050129L516.111642848142,-7.030457294066723L517.4932163515122,26.362581499260177L518.8747898548822,174.3422899500429L520.2563633582522,57.69102863844295L521.6379368616223,196.24507673114144L523.0195103649924,31.130663848663694L524.4010838683624,23.722674121883536L525.7826573717325,253.78491355273022L527.1642308751026,-205.3253647343074L528.5458043784727,297.8657482290318L529.9273778818427,-197.89541410266105L531.3089513852128,344.6294790039199L532.690524888583,89.33765896376006L534.072098391953,171.12393433796578L535.453671895323,204.5880878065347L536.8352453986931,333.67208718715534L538.2168189020632,-121.93657647208015L539.5983924054333,132.97367701160312L540.9799659088034,498.7185179058591L542.3615394121734,201.6553905806687L543.7431129155435,331.3627597434248L545.1246864189136,-1.842885004669603L546.5062599222838,45.016953888024595L547.8878334256538,597.6487619478035L549.2694069290238,527.2156412222153L550.6509804323939,273.58425220764514L552.032553935764,16.18018634951913L553.4141274391341,-117.50297303336271L554.7957009425041,0.9109258216186065L556.1772744458742,335.8808410180085L557.5588479492443,354.1473818273603L558.9404214526144,-68.2421640742034L560.3219949559846,150.9430291265743L561.7035684593546,201.08107459513877L563.0851419627246,129.92054471716884L564.4667154660947,269.0153842577715L565.8482889694648,178.38629560607325L567.2298624728348,-171.06372050040738L568.6114359762049,352.0679274060381L569.993009479575,-193.51566320152136L571.3745829829451,315.0643692245103L572.7561564863151,497.5186993644282L579.6640240031655,-182.08029678916338L581.0455975065356,179.99700634325572L582.4271710099057,349.26033069135224L583.8087445132758,421.19019205603126L586.5718915200159,-177.57277940963675L587.953465023386,279.92338903202966L589.3350385267562,67.77838205726076L590.7166120301262,333.199211253845L592.0981855334962,217.1412609441236L593.4797590368663,120.06339756666026L594.8613325402364,39.53039337638217L596.2429060436065,-173.89664390355796L597.6244795469765,92.15072091121989L599.0060530503466,234.00976855021725L600.3876265537167,545.2872998287482L601.7692000570868,69.26065982425453L603.150773560457,-9.865913366063896L604.532347063827,291.79187514172617L605.913920567197,0.1425940726121124L607.2954940705671,-167.97606393064473L608.6770675739372,-45.87423266469443L610.0586410773072,277.509688972152L611.4402145806773,65.07402492265916L612.8217880840474,274.97988604041717L614.2033615874175,-67.22409784709774L615.5849350907876,235.556895969517L616.9665085941577,510.3148087637389L621.1112291042679,-46.06518256588317L622.4928026076379,294.0447507298522L623.874376111008,29.472565544379943L625.2559496143781,166.91857101674248L626.6375231177482,476.4223010142136L628.0190966211183,156.86727480439694L629.4006701244883,307.78167995645083L630.7822436278584,268.1196192762788L632.1638171312286,285.55824396955165L633.5453906345986,243.76860815997426L634.9269641379686,-156.25797169600315L636.3085376413387,-7.539856978110543L637.6901111447088,281.6984566475128L639.0716846480789,276.93510638990136L640.453258151449,3.0055762560197046L641.834831654819,254.4290778790789L643.2164051581891,311.238772931899L644.5979786615592,153.71403544134648L645.9795521649294,-130.30414777036634L647.3611256682993,157.18452490200895L648.7426991716694,92.77315760483295L650.1242726750395,254.89842140584014L651.5058461784096,345.74851873898405L652.8874196817796,612.8595711446943L654.2689931851497,197.0448668931884L655.6505666885198,241.80638964657211L657.0321401918899,15.145057932289763L658.41371369526,513.232709871607L659.7952871986301,203.28536293092048L661.1768607020002,131.1208298028609L662.5584342053702,82.32603191145435L663.9400077087403,347.1884076273893L665.3215812121103,234.34208136254776L666.7031547154804,-77.65349485855104L668.0847282188505,202.01849531423804L669.4663017222206,487.3690289621509L670.8478752255907,522.9259666880762L672.2294487289607,347.089033699755L673.6110222323308,417.97743497508844L674.992595735701,-159.7138316616182L676.374169239071,260.5429404744869L677.755742742441,213.12871370113382L679.1373162458111,274.4683535826079L680.5188897491812,279.77609434385266L681.9004632525513,138.29861326133187L683.2820367559214,297.3784094236245L684.6636102592914,142.60388370363088L686.0451837626615,353.49875200594016L687.4267572660316,324.2267653209208L688.8083307694018,350.162760590862L690.1899042727717,-196.53996972553188L691.5714777761418,289.76087467438794L692.9530512795119,321.8322602249322L694.334624782882,89.92437169680171L695.716198286252,225.43268555406485L697.0977717896221,180.5070725191012L698.4793452929922,-79.31825808085182L699.8609187963623,361.0507039618888L701.2424922997324,116.95527969858524L702.6240658031026,-41.83365944144287L704.0056393064726,-2.8396234941206098L705.3872128098426,22.349701010369532L706.7687863132127,289.299462400067L708.1503598165827,197.5150768592919L709.5319333199528,75.5965308388107L710.9135068233229,-49.298667541859025L712.295080326693,257.8043923104578L713.6766538300631,418.29641795138485L715.0582273334331,273.4646835784191L716.4398008368032,915.6866528693971L717.8213743401734,-27.233023489013704L719.2029478435434,252.1265486517258L720.5845213469134,552.5416631952353L721.9660948502835,-198.37582139333063L723.3476683536536,29.65405126198443L724.7292418570237,1.5342289545739125L726.1108153603938,278.4870991993536L727.4923888637638,244.5466040401055L728.8739623671339,349.808786794976L730.255535870504,78.86440679175458L731.6371093738742,-10.387509850078837L733.0186828772441,803.3004058952731L734.4002563806142,335.90123566714067L735.7818298839843,263.24276546483685L737.1634033873544,39.38349858328623L738.5449768907245,449.7948871491828L739.9265503940945,67.8119732440667L741.3081238974646,-180.42359811766326L744.0712709042048,-175.14361673995955L745.452844407575,128.06243222319316L746.834417910945,-53.15215651637171L748.215991414315,343.9985778644252L749.5975649176851,514.8537512317159L750.9791384210552,257.8918360348416L752.3607119244252,170.98097184649987L753.7422854277953,-134.05959580084811L755.1238589311654,569.2080904870518L756.5054324345355,196.37717540623953L757.8870059379055,533.6223603152928L759.2685794412757,148.44355157181707L760.6501529446458,370.39305284475984L762.0317264480158,168.46216602949318L763.4132999513859,339.52421845203344L764.7948734547559,239.67868121880642L766.176446958126,373.9027320233626L767.5580204614961,271.39602632428455L768.9395939648662,185.5038948548502L770.3211674682362,452.09008496671714L771.7027409716063,-102.2412105382314L773.0843144749764,269.0303803233098L774.4658879783466,209.97427465284025L775.8474614817166,0.725974346645226L777.2290349850866,-132.9912427673037L778.6106084884567,41.82112569884513L779.9921819918268,312.3822729160857L781.3737554951969,141.9096658429741L782.7553289985669,191.10989069735828L784.136902501937,335.5983817924456L785.5184760053071,387.7327035054794L788.2816230120474,803.8989155332048L789.6631965154174,174.74211838188626L791.0447700187874,194.4846719352958L792.4263435221575,301.0967005361611L793.8079170255276,671.1702723841362L796.5710640322677,382.30406113140515L797.9526375356378,125.45938184245087L799.3342110390079,109.50876674566646L800.715784542378,124.46111042185586L802.0973580457481,322.4890878955133L803.4789315491182,-41.73068645807937L804.8605050524882,288.68962240150614L806.2420785558583,-118.35528274938414L807.6236520592283,226.1253038343976L809.0052255625984,219.18592449339675L810.3867990659685,301.84083863276567L811.7683725693386,459.14996602546637L813.1499460727086,289.9329628575884L814.5315195760787,220.97045629246415L815.9130930794488,-91.79161882518646L817.294666582819,26.44469328923033L818.676240086189,156.29475834673164L820.057813589559,524.7596189329292L822.8209605962992,425.2298655153504L824.2025340996693,83.56677304950992L825.5841076030393,-136.7059014995211L826.9656811064094,250.01157021737265L828.3472546097795,387.0548146939643L829.7288281131496,604.5088287644013L831.1104016165198,57.227083695275496L832.4919751198897,-18.063829176225866L833.8735486232598,16.987974413186585L835.2551221266299,457.9415497397936L836.63669563,171.98457520150853L838.01826913337,209.20694264153636L839.3998426367401,398.3261907985125L840.7814161401102,234.1849892448857L842.1629896434803,404.4219248169141L843.5445631468504,237.17613780176134L844.9261366502205,258.57192426930226L846.3077101535906,278.01595614472774L847.6892836569606,460.196158206604L849.0708571603307,156.64626612295132L850.4524306637007,150.84565467434507L851.8340041670708,383.61298438077523L853.2155776704409,240.18081614221157L854.597151173811,272.55065672155973L855.978724677181,473.4454153818945L857.3602981805511,64.98978035892355" fill="none"></path></g></g></g></g></g></g><g transform="translate(82, 376)" clip-path="url(#clip_1)"><clipPath id="clip_1"><rect width="882" height="23"></rect></clipPath><g><g><line x1="82.29756278993767" y1="0" x2="82.29756278993767" y2="5" style="visibility: inherit;" fill="rgb(0, 0, 0)" stroke="rgb(204, 204, 204)" stroke-width="1px"></line><line x1="178.24016719063752" y1="0" x2="178.24016719063752" y2="5" style="visibility: inherit;" fill="rgb(0, 0, 0)" stroke="rgb(204, 204, 204)" stroke-width="1px"></line><line x1="274.18277159133737" y1="0" x2="274.18277159133737" y2="5" style="visibility: inherit;" fill="rgb(0, 0, 0)" stroke="rgb(204, 204, 204)" stroke-width="1px"></line><line x1="370.12537599203716" y1="0" x2="370.12537599203716" y2="5" style="visibility: inherit;" fill="rgb(0, 0, 0)" stroke="rgb(204, 204, 204)" stroke-width="1px"></line><line x1="466.067980392737" y1="0" x2="466.067980392737" y2="5" style="visibility: inherit;" fill="rgb(0, 0, 0)" stroke="rgb(204, 204, 204)" stroke-width="1px"></line><line x1="562.0105847934368" y1="0" x2="562.0105847934368" y2="5" style="visibility: inherit;" fill="rgb(0, 0, 0)" stroke="rgb(204, 204, 204)" stroke-width="1px"></line><line x1="657.9531891941366" y1="0" x2="657.9531891941366" y2="5" style="visibility: inherit;" fill="rgb(0, 0, 0)" stroke="rgb(204, 204, 204)" stroke-width="1px"></line><line x1="753.8957935948364" y1="0" x2="753.8957935948364" y2="5" style="visibility: inherit;" fill="rgb(0, 0, 0)" stroke="rgb(204, 204, 204)" stroke-width="1px"></line><line x1="849.8383979955363" y1="0" x2="849.8383979955363" y2="5" style="visibility: inherit;" fill="rgb(0, 0, 0)" stroke="rgb(204, 204, 204)" stroke-width="1px"></line></g><g transform="translate(0, 8)"><text style="text-anchor: middle; visibility: inherit; font-family: Roboto, sans-serif; font-size: 12px; font-weight: 200;" x="82.29756278993767" y="0" dx="0em" dy="0.95em" fill="rgb(33, 33, 33)" stroke="none" stroke-width="1px">0</text><text style="text-anchor: middle; visibility: inherit; font-family: Roboto, sans-serif; font-size: 12px; font-weight: 200;" x="178.24016719063752" y="0" dx="0em" dy="0.95em" fill="rgb(33, 33, 33)" stroke="none" stroke-width="1px">50k</text><text style="text-anchor: middle; visibility: inherit; font-family: Roboto, sans-serif; font-size: 12px; font-weight: 200;" x="274.18277159133737" y="0" dx="0em" dy="0.95em" fill="rgb(33, 33, 33)" stroke="none" stroke-width="1px">100k</text><text style="text-anchor: middle; visibility: inherit; font-family: Roboto, sans-serif; font-size: 12px; font-weight: 200;" x="370.12537599203716" y="0" dx="0em" dy="0.95em" fill="rgb(33, 33, 33)" stroke="none" stroke-width="1px">150k</text><text style="text-anchor: middle; visibility: inherit; font-family: Roboto, sans-serif; font-size: 12px; font-weight: 200;" x="466.067980392737" y="0" dx="0em" dy="0.95em" fill="rgb(33, 33, 33)" stroke="none" stroke-width="1px">200k</text><text style="text-anchor: middle; visibility: inherit; font-family: Roboto, sans-serif; font-size: 12px; font-weight: 200;" x="562.0105847934368" y="0" dx="0em" dy="0.95em" fill="rgb(33, 33, 33)" stroke="none" stroke-width="1px">250k</text><text style="text-anchor: middle; visibility: inherit; font-family: Roboto, sans-serif; font-size: 12px; font-weight: 200;" x="657.9531891941366" y="0" dx="0em" dy="0.95em" fill="rgb(33, 33, 33)" stroke="none" stroke-width="1px">300k</text><text style="text-anchor: middle; visibility: inherit; font-family: Roboto, sans-serif; font-size: 12px; font-weight: 200;" x="753.8957935948364" y="0" dx="0em" dy="0.95em" fill="rgb(33, 33, 33)" stroke="none" stroke-width="1px">350k</text><text style="text-anchor: middle; visibility: inherit; font-family: Roboto, sans-serif; font-size: 12px; font-weight: 200;" x="849.8383979955363" y="0" dx="0em" dy="0.95em" fill="rgb(33, 33, 33)" stroke="none" stroke-width="1px">400k</text></g><line x1="0" y1="0" x2="882.8519973831177" y2="0" fill="rgb(0, 0, 0)" stroke="rgb(204, 204, 204)" stroke-width="1px"></line></g></g></g></g></svg>